PathFileType	4	(X/Y/Z)	 s09c0401.trc
DataRate	CameraRate	NumFrames	NumMarkers	Units	OrigDataRate	OrigDataStartFrame	OrigNumFrames
200	200	6	50	mm	200	501	2000
Frame#	Time	racr			lacr			c7			jug			rlel			rdr			llel			ldr			s2			lic			ric			lasi			rasi			rpsi			lpsi			rgt			lgt			rth1			rth2			rth3			rth4			rlfc			rmfc			rsh1			rsh2			rsh3			rsh4			rlmal			rmmal			rcal			rtoe			rmt5			lth1			lth2			lth4			lth3			llfc			lmfc			llmal			lmmal			lcal			lmt5			lsh1			lsh2			lsh3			lsh4			ltoe			SBIKE			LBIKE			RBIKE			
		X1	Y1	Z1	X2	Y2	Z2	X3	Y3	Z3	X4	Y4	Z4	X5	Y5	Z5	X6	Y6	Z6	X7	Y7	Z7	X8	Y8	Z8	X9	Y9	Z9	X10	Y10	Z10	X11	Y11	Z11	X12	Y12	Z12	X13	Y13	Z13	X14	Y14	Z14	X15	Y15	Z15	X16	Y16	Z16	X17	Y17	Z17	X18	Y18	Z18	X19	Y19	Z19	X20	Y20	Z20	X21	Y21	Z21	X22	Y22	Z22	X23	Y23	Z23	X24	Y24	Z24	X25	Y25	Z25	X26	Y26	Z26	X27	Y27	Z27	X28	Y28	Z28	X29	Y29	Z29	X30	Y30	Z30	X31	Y31	Z31	X32	Y32	Z32	X33	Y33	Z33	X34	Y34	Z34	X35	Y35	Z35	X36	Y36	Z36	X37	Y37	Z37	X38	Y38	Z38	X39	Y39	Z39	X40	Y40	Z40	X41	Y41	Z41	X42	Y42	Z42	X43	Y43	Z43	X44	Y44	Z44	X45	Y45	Z45	X46	Y46	Z46	X47	Y47	Z47	X48	Y48	Z48	X49	Y49	Z49	X50	Y50	Z50	
501	2.5050	534.591573	1307.084525	43.184760	673.221610	1286.284446	-296.904831	593.395530	1371.762557	-124.009932	597.313433	1235.305643	-123.378534	474.898062	1046.537919	34.806885	673.451691	906.701838	-49.801232	523.185146	1077.240553	-432.512277	650.480920	862.726501	-399.196093	161.440938	1170.694096	-287.734999	335.059696	1145.697041	-386.189104	259.905715	1172.442252	-108.315638	358.047462	1087.944711	-351.751325	302.426890	1113.846145	-112.071044	174.001006	1204.732910	-222.987609	205.090944	1202.261057	-326.901530	238.435361	1045.273669	-66.243119	273.263458	1008.364506	-431.965549	361.113075	979.335057	-68.259459	444.438145	952.308950	-76.963353	502.521105	885.975360	-79.596653	460.508775	976.535896	-98.059842	565.484881	806.316884	-107.038380	549.556614	788.489668	-205.326072	479.114725	749.605257	-78.429855	429.865193	675.718398	-92.303449	350.100210	638.652814	-90.832895	449.310959	658.791289	-122.779327	279.420518	567.782067	-92.065575	282.698265	578.337656	-169.274249	187.080278	553.147843	-127.838900	444.656773	493.481447	-126.732195	360.881923	494.084623	-62.437691	296.628800	875.786523	-426.613233	327.309746	797.602547	-411.371269	360.051186	802.179848	-392.462242	313.963065	708.395245	-403.858991	304.010557	612.809497	-388.500288	301.698107	597.730313	-291.596354	167.368365	273.980363	-404.781464	188.471461	273.141624	-337.661126	95.065528	262.003963	-371.034810	234.426451	157.334320	-430.042087	258.697297	523.483327	-416.088487	252.491047	437.535333	-409.884113	202.551965	363.825044	-411.624395	274.963581	430.950302	-377.406854	324.349923	138.283131	-359.855297	-65.037765	853.671225	-238.921767	20.770616	84.734357	-441.971279	21.084493	84.090910	-43.824243	
502	2.5100	535.153618	1306.701330	44.021652	673.856795	1285.466246	-295.977781	594.199886	1371.269559	-123.062694	597.637748	1234.815618	-122.403454	474.785981	1046.219016	34.994270	673.269386	906.744880	-49.697351	524.240076	1075.202967	-430.598023	651.945850	861.244517	-397.814122	162.201677	1171.704096	-288.543397	336.178065	1146.538707	-386.142853	259.705024	1172.983336	-108.474812	358.949987	1088.672720	-351.602554	302.277897	1114.425506	-112.127556	174.321183	1205.548149	-223.563109	205.817567	1203.246552	-327.259796	237.904807	1045.648498	-66.713185	274.964031	1009.169633	-432.321818	360.652247	979.520723	-68.630516	444.028559	952.456591	-76.941186	502.063313	886.253380	-78.950655	460.188619	976.895017	-97.881216	565.350629	806.516560	-107.070554	549.733290	788.763109	-205.220802	479.450281	749.107592	-78.362992	430.754417	674.973869	-92.339942	351.232778	637.317743	-90.879109	450.490829	658.155836	-122.737541	281.019940	565.864594	-92.250778	283.982132	576.632443	-169.378773	188.780410	550.524611	-127.836833	446.941104	493.351899	-126.694428	363.186701	493.054289	-62.384678	298.130015	876.534878	-426.454943	328.505287	798.318302	-410.844036	361.101528	802.886829	-391.650305	315.052811	709.180815	-403.431303	304.893377	613.544164	-388.457324	301.913179	598.515823	-291.361446	166.356700	275.547474	-404.846815	187.171838	274.753191	-337.594977	93.937783	264.407270	-371.002708	232.179235	158.242561	-429.995473	258.960819	524.502954	-416.137904	252.305149	438.515939	-409.955637	201.973714	365.032159	-411.708121	274.740729	431.922267	-377.521885	321.856045	138.154559	-359.833209	-65.027644	853.691251	-238.927639	20.774747	84.735740	-441.977724	21.088214	84.079373	-43.815117	
503	2.5150	535.696578	1306.356049	44.873792	674.517291	1284.856302	-295.076351	594.904219	1370.714921	-122.196663	598.026719	1234.269960	-121.381801	474.595710	1045.932816	35.152151	673.035221	906.805763	-49.599209	525.131812	1073.342190	-428.710700	653.394578	860.024369	-396.652929	162.922628	1172.745369	-289.304160	337.014742	1147.286515	-385.915297	259.532721	1173.503572	-108.629353	359.775588	1089.370674	-351.527131	302.160607	1115.071369	-112.192315	174.751375	1206.356845	-224.109947	206.457598	1204.114174	-327.557034	237.317189	1045.965021	-67.293389	276.585865	1009.999163	-432.655508	360.236538	979.743452	-68.932623	443.557571	952.598350	-76.879859	501.612682	886.371424	-78.860678	459.907998	977.081241	-97.700007	565.169634	806.667730	-107.152947	549.818013	788.966879	-205.104327	479.777860	748.597768	-78.336970	431.667481	674.128503	-92.291638	352.300837	635.911294	-90.874155	451.420589	657.508764	-122.794079	282.579740	564.102951	-92.204180	285.538337	574.811374	-169.399009	190.481624	547.763751	-127.701283	449.157004	493.191063	-126.650884	365.360737	492.067558	-62.264783	299.598043	877.211470	-426.291458	329.779259	799.074868	-410.420346	362.264510	803.589666	-390.966573	316.196292	709.891965	-403.143927	305.813315	614.330976	-388.548396	302.260673	599.317440	-291.168275	165.372261	277.208482	-404.934118	186.409843	276.077629	-337.722795	92.995589	266.912136	-370.926234	229.914612	159.197197	-429.962971	259.329359	525.520123	-416.280241	252.168116	439.553381	-410.075054	201.444040	366.333401	-411.772894	274.588060	432.780792	-377.551620	319.416374	138.036402	-359.810470	-65.019459	853.688028	-238.917916	20.764532	84.745345	-441.966414	21.080366	84.097015	-43.829827	
504	2.5200	536.227238	1306.001488	45.669405	675.181332	1284.190331	-294.150152	595.686424	1370.179272	-121.386077	598.407042	1233.741913	-120.484648	474.351936	1045.678750	35.357293	672.854656	906.715179	-49.572957	525.844696	1071.696322	-426.874179	654.633544	859.066417	-395.847337	163.460062	1173.459867	-289.818147	338.017136	1148.127128	-385.876688	259.398674	1174.071320	-108.746117	360.591265	1090.094093	-351.415610	302.035932	1115.662294	-112.256908	175.206719	1207.263622	-224.630841	207.217765	1205.224976	-327.931310	236.812466	1046.368822	-67.688172	278.194332	1010.755114	-432.979741	359.833216	979.939675	-69.122460	443.167318	952.692289	-76.907272	501.123792	886.434753	-78.816052	459.580025	977.261659	-97.551555	564.905265	806.850779	-107.161103	549.791720	789.062079	-204.991586	480.023613	748.000899	-78.195816	432.330695	673.155391	-92.288965	353.319240	634.406940	-90.922277	452.129810	656.863061	-122.853885	284.126265	562.304055	-92.018964	286.827442	572.984006	-169.393332	192.122834	545.019575	-127.697950	451.300480	493.052285	-126.645395	367.525829	490.969702	-62.142331	301.044091	877.956589	-426.187730	331.103234	799.733164	-410.092154	363.467663	804.276465	-390.407022	317.506741	710.533814	-402.929407	306.941449	615.046880	-388.616527	302.745605	600.157424	-291.170350	164.437998	278.906690	-405.004901	185.611462	277.519631	-337.782299	91.962707	269.350259	-370.869081	227.710814	160.113091	-429.924214	259.760134	526.474577	-416.423465	252.110324	440.613465	-410.181901	200.934430	367.753761	-411.826182	274.536910	433.732279	-377.728455	316.929457	138.038114	-359.785932	-65.021226	853.695543	-238.891127	20.769652	84.754354	-441.983659	21.071465	84.098316	-43.832907	
505	2.5250	536.807072	1305.635611	46.490712	675.827942	1283.531259	-293.314535	596.385892	1369.625022	-120.577745	598.838921	1233.199241	-119.529687	474.051862	1045.490283	35.573509	672.567859	906.928888	-49.283209	526.314573	1070.273135	-424.932401	655.626462	858.176360	-395.170202	164.116470	1174.552338	-290.318596	339.149683	1148.831179	-385.903045	259.300390	1174.684557	-108.863371	361.309662	1090.608415	-351.292612	301.944666	1116.297799	-112.288839	175.756535	1208.042269	-225.125181	207.836905	1206.138585	-328.019736	236.179767	1046.789347	-68.273510	279.740527	1011.553611	-433.224453	359.399119	980.105915	-69.406476	442.722374	952.755960	-76.938361	500.507625	886.520007	-78.813014	459.270135	977.388788	-97.424576	564.557234	806.900886	-107.250943	549.669381	789.133642	-204.895800	480.199399	747.288394	-78.014935	433.032047	672.155008	-92.222086	354.319313	632.827978	-90.911242	452.870040	655.872637	-122.891772	285.493630	560.250542	-92.062146	288.235641	571.058221	-169.334926	193.696006	542.189463	-127.598379	453.400225	492.848842	-126.555169	369.681372	489.897444	-61.981304	302.417935	878.661581	-426.104639	332.419685	800.487343	-409.812085	364.620496	805.097223	-389.945720	318.835371	711.328438	-402.835875	308.202935	615.780016	-388.775593	303.438517	600.822740	-291.243519	163.641511	280.520734	-404.951843	184.851162	279.002846	-337.771215	91.149957	271.942928	-370.730926	225.534886	161.155181	-429.893587	260.269815	527.534966	-416.540252	252.106791	441.626120	-410.290265	200.461255	369.105048	-411.858717	274.552158	434.597724	-377.842058	314.476397	138.052356	-359.784751	-65.004364	853.711317	-238.848134	20.780242	84.779190	-441.961706	21.089491	84.098446	-43.808111	
506	2.5300	537.348023	1305.147454	47.229063	676.488977	1283.111320	-292.568738	597.008471	1369.102961	-119.815393	599.312761	1232.690607	-118.707572	473.703320	1045.280088	35.826310	672.333030	906.963842	-49.106023	525.829572	1069.440827	-423.373598	656.253602	857.559025	-394.816312	164.307041	1176.433071	-288.852550	339.960615	1149.387048	-385.689406	259.260106	1175.281321	-108.996461	362.055131	1091.124390	-351.138834	301.851969	1116.943038	-112.308772	176.264143	1209.015216	-225.581259	211.937240	1205.213788	-329.669905	235.666322	1047.234978	-68.641511	281.187290	1012.347300	-433.453920	358.948814	980.306779	-69.669103	442.239531	952.826759	-77.001290	499.942116	886.460791	-78.859279	458.966817	977.479564	-97.357663	564.114162	806.929738	-107.440045	549.424537	789.121666	-204.816610	480.315101	746.541467	-77.881015	433.577007	671.121688	-92.225518	355.236802	631.156810	-90.902342	453.773854	655.325100	-122.776854	286.979647	558.230108	-91.938197	289.509092	569.047192	-169.320968	195.330703	539.253288	-127.455934	455.513651	492.611173	-126.505762	371.727577	488.719338	-61.889176	303.795634	879.376152	-426.040721	333.810743	801.276281	-409.642732	365.867252	805.866527	-389.559786	320.336073	712.064420	-402.841326	309.658962	616.448011	-388.978322	304.554994	601.536821	-291.365509	162.874402	282.300853	-405.025639	183.935440	280.726479	-337.717322	90.320210	274.637057	-370.682093	223.302377	162.226212	-429.835070	260.931032	528.525437	-416.681096	252.190094	442.735120	-410.425729	200.124058	370.527414	-411.827761	274.714574	435.558576	-378.085384	312.012448	138.043096	-359.766419	-64.994445	853.720985	-238.814758	20.768486	84.793465	-441.967632	21.078778	84.084783	-43.811410	
